<svg width="380" height="200" viewBox="0 0 380 200" fill="none" xmlns="http://www.w3.org/2000/svg">
<g clip-path="url(#clip0_130_16728)">
<path d="M0 0H380V200H0" fill="#B31942"/>
<path d="M0 23.0769H380H0ZM380 53.8462H0H380ZM0 84.6154H380H0ZM380 115.385H0H380ZM0 146.154H380H0ZM380 176.923H0H380Z" fill="black"/>
<path fill-rule="evenodd" clip-rule="evenodd" d="M380 30.7692H0V15.3846H380V30.7692ZM0 46.1538H380V61.5385H0V46.1538ZM380 92.3077H0V76.9231H380V92.3077ZM0 107.692H380V123.077H0V107.692ZM380 153.846H0V138.462H380V153.846ZM0 169.231H380V184.615H0V169.231Z" fill="white"/>
<path d="M0 0H152V107.692H0" fill="#0A3161"/>
<path d="M12.6666 4.61539L16.2838 15.7478L6.81396 8.86759H18.5193L9.04948 15.7478L12.6666 4.61539Z" fill="white"/>
<path d="M12.6666 26.1538L16.2838 37.2863L6.81396 30.406H18.5193L9.04948 37.2863L12.6666 26.1538Z" fill="white"/>
<path d="M12.6666 47.6923L16.2838 58.8247L6.81396 51.9445H18.5193L9.04948 58.8247L12.6666 47.6923Z" fill="white"/>
<path d="M12.6666 69.2308L16.2838 80.3632L6.81396 73.483H18.5193L9.04948 80.3632L12.6666 69.2308Z" fill="white"/>
<path d="M12.6666 90.7692L16.2838 101.902L6.81396 95.0214H18.5193L9.04948 101.902L12.6666 90.7692Z" fill="white"/>
<path d="M25.3331 15.3846L28.9503 26.517L19.4805 19.6368H31.1858L21.716 26.517L25.3331 15.3846Z" fill="white"/>
<path d="M25.3331 36.9231L28.9503 48.0555L19.4805 41.1753H31.1858L21.716 48.0555L25.3331 36.9231Z" fill="white"/>
<path d="M25.3331 58.4615L28.9503 69.594L19.4805 62.7138H31.1858L21.716 69.594L25.3331 58.4615Z" fill="white"/>
<path d="M25.3331 80L28.9503 91.1324L19.4805 84.2522H31.1858L21.716 91.1324L25.3331 80Z" fill="white"/>
<path d="M38.0001 4.61539L41.6173 15.7478L32.1475 8.86759H43.8528L34.383 15.7478L38.0001 4.61539Z" fill="white"/>
<path d="M38.0001 26.1538L41.6173 37.2863L32.1475 30.406H43.8528L34.383 37.2863L38.0001 26.1538Z" fill="white"/>
<path d="M38.0001 47.6923L41.6173 58.8247L32.1475 51.9445H43.8528L34.383 58.8247L38.0001 47.6923Z" fill="white"/>
<path d="M38.0001 69.2308L41.6173 80.3632L32.1475 73.483H43.8528L34.383 80.3632L38.0001 69.2308Z" fill="white"/>
<path d="M38.0001 90.7692L41.6173 101.902L32.1475 95.0214H43.8528L34.383 101.902L38.0001 90.7692Z" fill="white"/>
<path d="M50.6666 15.3846L54.2838 26.517L44.814 19.6368H56.5193L47.0495 26.517L50.6666 15.3846Z" fill="white"/>
<path d="M50.6666 36.9231L54.2838 48.0555L44.814 41.1753H56.5193L47.0495 48.0555L50.6666 36.9231Z" fill="white"/>
<path d="M50.6666 58.4615L54.2838 69.594L44.814 62.7138H56.5193L47.0495 69.594L50.6666 58.4615Z" fill="white"/>
<path d="M50.6666 80L54.2838 91.1324L44.814 84.2522H56.5193L47.0495 91.1324L50.6666 80Z" fill="white"/>
<path d="M63.3331 4.61539L66.9503 15.7478L57.4805 8.86759H69.1858L59.716 15.7478L63.3331 4.61539Z" fill="white"/>
<path d="M63.3331 26.1538L66.9503 37.2863L57.4805 30.406H69.1858L59.716 37.2863L63.3331 26.1538Z" fill="white"/>
<path d="M63.3331 47.6923L66.9503 58.8247L57.4805 51.9445H69.1858L59.716 58.8247L63.3331 47.6923Z" fill="white"/>
<path d="M63.3331 69.2308L66.9503 80.3632L57.4805 73.483H69.1858L59.716 80.3632L63.3331 69.2308Z" fill="white"/>
<path d="M63.3331 90.7692L66.9503 101.902L57.4805 95.0214H69.1858L59.716 101.902L63.3331 90.7692Z" fill="white"/>
<path d="M75.9996 15.3846L79.6168 26.517L70.147 19.6368H81.8523L72.3825 26.517L75.9996 15.3846Z" fill="white"/>
<path d="M75.9996 36.9231L79.6168 48.0555L70.147 41.1753H81.8523L72.3825 48.0555L75.9996 36.9231Z" fill="white"/>
<path d="M75.9996 58.4615L79.6168 69.594L70.147 62.7138H81.8523L72.3825 69.594L75.9996 58.4615Z" fill="white"/>
<path d="M75.9996 80L79.6168 91.1324L70.147 84.2522H81.8523L72.3825 91.1324L75.9996 80Z" fill="white"/>
<path d="M88.6666 4.61539L92.2838 15.7478L82.814 8.86759H94.5193L85.0495 15.7478L88.6666 4.61539Z" fill="white"/>
<path d="M88.6666 26.1538L92.2838 37.2863L82.814 30.406H94.5193L85.0495 37.2863L88.6666 26.1538Z" fill="white"/>
<path d="M88.6666 47.6923L92.2838 58.8247L82.814 51.9445H94.5193L85.0495 58.8247L88.6666 47.6923Z" fill="white"/>
<path d="M88.6666 69.2308L92.2838 80.3632L82.814 73.483H94.5193L85.0495 80.3632L88.6666 69.2308Z" fill="white"/>
<path d="M88.6666 90.7692L92.2838 101.902L82.814 95.0214H94.5193L85.0495 101.902L88.6666 90.7692Z" fill="white"/>
<path d="M101.333 15.3846L104.95 26.517L95.4805 19.6368H107.186L97.716 26.517L101.333 15.3846Z" fill="white"/>
<path d="M101.333 36.9231L104.95 48.0555L95.4805 41.1753H107.186L97.716 48.0555L101.333 36.9231Z" fill="white"/>
<path d="M101.333 58.4615L104.95 69.594L95.4805 62.7138H107.186L97.716 69.594L101.333 58.4615Z" fill="white"/>
<path d="M101.333 80L104.95 91.1324L95.4805 84.2522H107.186L97.716 91.1324L101.333 80Z" fill="white"/>
<path d="M114 4.61539L117.617 15.7478L108.147 8.86759H119.853L110.383 15.7478L114 4.61539Z" fill="white"/>
<path d="M114 26.1538L117.617 37.2863L108.147 30.406H119.853L110.383 37.2863L114 26.1538Z" fill="white"/>
<path d="M114 47.6923L117.617 58.8247L108.147 51.9445H119.853L110.383 58.8247L114 47.6923Z" fill="white"/>
<path d="M114 69.2308L117.617 80.3632L108.147 73.483H119.853L110.383 80.3632L114 69.2308Z" fill="white"/>
<path d="M114 90.7692L117.617 101.902L108.147 95.0214H119.853L110.383 101.902L114 90.7692Z" fill="white"/>
<path d="M126.667 15.3846L130.284 26.517L120.814 19.6368H132.519L123.049 26.517L126.667 15.3846Z" fill="white"/>
<path d="M126.667 36.9231L130.284 48.0555L120.814 41.1753H132.519L123.049 48.0555L126.667 36.9231Z" fill="white"/>
<path d="M126.667 58.4615L130.284 69.594L120.814 62.7138H132.519L123.049 69.594L126.667 58.4615Z" fill="white"/>
<path d="M126.667 80L130.284 91.1324L120.814 84.2522H132.519L123.049 91.1324L126.667 80Z" fill="white"/>
<path d="M139.333 4.61539L142.95 15.7478L133.48 8.86759H145.186L135.716 15.7478L139.333 4.61539Z" fill="white"/>
<path d="M139.333 26.1538L142.95 37.2863L133.48 30.406H145.186L135.716 37.2863L139.333 26.1538Z" fill="white"/>
<path d="M139.333 47.6923L142.95 58.8247L133.48 51.9445H145.186L135.716 58.8247L139.333 47.6923Z" fill="white"/>
<path d="M139.333 69.2308L142.95 80.3632L133.48 73.483H145.186L135.716 80.3632L139.333 69.2308Z" fill="white"/>
<path d="M139.333 90.7692L142.95 101.902L133.48 95.0214H145.186L135.716 101.902L139.333 90.7692Z" fill="white"/>
</g>
<defs>
<clipPath id="clip0_130_16728">
<rect width="380" height="200" fill="white"/>
</clipPath>
</defs>
</svg>
